<svg data-noselect="" viewBox="0 0 400 300" width="400" height="300" preserveAspectRatio="none" version="1.1" xmlns="http://www.w3.org/2000/svg" style="background: rgba(255, 255, 255, 0);"><defs></defs> <g id="shape_J2ytgnO2s7" transform="translate(71.36363636363637,27.272727272727273) rotate(0,141.5,113) scale(0.9090909090909091,0.9090909090909091)" filter="" style="cursor: move; opacity: 1;"><g><rect fill="rgba(0,0,0,0)" width="303" height="246" x="-10" y="-10"></rect><svg version="1.1" id="图层_1" xmlns="http://www.w3.org/2000/svg" xmlns:xlink="http://www.w3.org/1999/xlink" x="0px" y="0px" width="283" height="226" viewBox="0 0 283.46 226.77" style="enable-background:new 0 0 283.46 226.77;" xml:space="preserve" preserveAspectRatio="none" data-parent="shape_J2ytgnO2s7">
<g>
	<path style="" d="M141.709,34.334c-10.945,7.283-15.085,16.469-15.233,25.456
		c7.275,8.067,12.774,17.49,15.254,27.557c2.464-9.999,7.905-19.365,15.107-27.396C156.733,50.902,152.644,41.638,141.709,34.334z" fill-rule="evenodd" clip-rule="evenodd" fill="#DD2726"></path>
	<circle style="" cx="141.73" cy="24" r="8.113" fill-rule="evenodd" clip-rule="evenodd" fill="#DD2726"></circle>
	<circle style="" cx="141.73" cy="202.77" r="8.113" fill-rule="evenodd" clip-rule="evenodd" fill="#72C2C0"></circle>
	<circle style="" cx="231.115" cy="113.385" r="8.113" fill-rule="evenodd" clip-rule="evenodd" fill="#E9B42C"></circle>
	<circle style="" cx="52.345" cy="113.385" r="8.113" fill-rule="evenodd" clip-rule="evenodd" fill="#D91983"></circle>
	<circle style="" cx="204.935" cy="176.589" r="8.113" fill-rule="evenodd" clip-rule="evenodd" fill="#9FC43E"></circle>
	<circle style="" cx="78.526" cy="50.18" r="8.113" fill-rule="evenodd" clip-rule="evenodd" fill="#3B8073"></circle>
	<path style="" d="M197.792,93.012c13.256-0.434,26.909,2.171,38.075,7.148
		c-9.678-6.206-21.786-10.255-34.236-11.587c7.861-9.746,13.561-21.17,16.015-32.402c-4.376,11.415-12.189,22.91-21.87,31.978
		c-13.346-0.502-26.709,2.188-37.56,8.748c6.561-10.851,9.253-24.215,8.749-37.563c9.067-9.679,20.564-17.491,31.979-21.866
		c-11.233,2.455-22.657,8.155-32.403,16.016c-1.334-12.451-5.38-24.558-11.587-34.237c4.977,11.164,7.582,24.816,7.151,38.072
		c-9.793,9.082-17.341,20.435-20.375,32.748c-3.034-12.312-10.582-23.663-20.373-32.744c-0.433-13.256,2.17-26.91,7.148-38.076
		c-6.207,9.678-10.254,21.786-11.587,34.236c-9.746-7.861-21.17-13.561-32.402-16.015c11.414,4.375,22.911,12.186,31.978,21.865
		c-0.504,13.347,2.188,26.712,8.749,37.563c-10.851-6.559-24.214-9.251-37.56-8.748c-9.68-9.068-17.494-20.563-21.869-31.978
		c2.455,11.232,8.155,22.655,16.015,32.402c-12.45,1.334-24.558,5.38-34.236,11.587c11.164-4.977,24.817-7.583,38.073-7.151
		c9.082,9.794,20.435,17.341,32.748,20.375c-12.311,3.035-23.664,10.58-32.746,20.374c-13.256,0.433-26.909-2.171-38.075-7.148
		c9.678,6.206,21.786,10.253,34.237,11.587c-7.861,9.747-13.561,21.17-16.016,32.403C70.189,159.185,78,147.688,87.679,138.62
		c13.347,0.504,26.712-2.188,37.563-8.749c-6.56,10.851-9.249,24.214-8.748,37.56c-9.068,9.68-20.563,17.494-31.978,21.87
		c11.233-2.455,22.656-8.154,32.402-16.016c1.332,12.451,5.38,24.558,11.587,34.237c-4.978-11.165-7.584-24.818-7.151-38.075
		c9.791-9.081,17.341-20.432,20.376-32.743c3.035,12.311,10.585,23.662,20.376,32.743c0.432,13.257-2.174,26.91-7.151,38.075
		c6.207-9.678,10.253-21.786,11.587-34.237c9.746,7.862,21.17,13.562,32.403,16.016c-11.415-4.376-22.913-12.189-31.979-21.87
		c0.503-13.346-2.189-26.709-8.748-37.56c10.851,6.561,24.216,9.253,37.564,8.749c9.679,9.067,17.49,20.564,21.866,31.979
		c-2.454-11.233-8.154-22.657-16.016-32.403c12.451-1.334,24.558-5.38,34.236-11.587c-11.164,4.977-24.817,7.583-38.072,7.151
		c-9.082-9.793-20.436-17.341-32.749-20.375C177.358,110.351,188.71,102.803,197.792,93.012z M94.305,133.027
		c8.952-6.768,19.028-11.333,29.236-12.111C115.774,127.585,105.421,131.482,94.305,133.027z M94.306,93.739
		c11.116,1.544,21.468,5.442,29.237,12.11C113.335,105.072,103.259,100.507,94.306,93.739z M122.084,160.808
		c1.544-11.116,5.442-21.468,12.11-29.236C133.416,141.78,128.851,151.856,122.084,160.808z M122.088,65.96
		c6.768,8.952,11.333,19.028,12.111,29.235C127.531,87.428,123.633,77.076,122.088,65.96z M161.376,65.954
		c-1.545,11.121-5.443,21.48-12.116,29.251C150.036,84.992,154.605,74.91,161.376,65.954z M161.375,160.808
		c-6.766-8.952-11.332-19.028-12.109-29.236C155.934,139.34,159.831,149.693,161.375,160.808z M189.161,133.031
		c-11.121-1.545-21.48-5.443-29.251-12.116C170.123,121.691,180.205,126.26,189.161,133.031z M159.926,105.848
		c7.765-6.663,18.112-10.557,29.221-12.104C180.199,100.505,170.128,105.068,159.926,105.848z" fill-rule="evenodd" clip-rule="evenodd" fill="#5DB9D4"></path>
	<circle style="" cx="78.525" cy="176.589" r="8.113" fill-rule="evenodd" clip-rule="evenodd" fill="#43A0BC"></circle>
	<circle style="" cx="204.934" cy="50.18" r="8.113" fill-rule="evenodd" clip-rule="evenodd" fill="#6985BC"></circle>
	<path style="" d="M126.476,166.98c0.149,8.987,4.288,18.173,15.233,25.456
		c10.934-7.304,15.024-16.568,15.128-25.617c-7.202-8.031-12.643-17.397-15.107-27.396
		C139.25,149.489,133.751,158.913,126.476,166.98z" fill-rule="evenodd" clip-rule="evenodd" fill="#72C2C0"></path>
	<path style="" d="M62.606,113.333c7.283,10.945,16.469,15.085,25.456,15.233
		c8.067-7.274,17.491-12.773,27.557-15.254c-9.999-2.464-19.365-7.905-27.396-15.107C79.174,98.309,69.91,102.399,62.606,113.333z" fill-rule="evenodd" clip-rule="evenodd" fill="#D91983"></path>
	<path style="" d="M195.091,98.205c-8.031,7.202-17.397,12.643-27.396,15.107
		c10.066,2.481,19.49,7.98,27.557,15.254c8.987-0.148,18.173-4.288,25.456-15.233C213.405,102.399,204.14,98.309,195.091,98.205z" fill-rule="evenodd" clip-rule="evenodd" fill="#E9B42C"></path>
	<path style="" d="M85.797,57.451c-2.589,12.89,0.979,22.312,7.229,28.772
		c10.848,0.56,21.4,3.335,30.272,8.699c-5.328-8.813-8.104-19.283-8.69-30.054C108.135,58.543,98.693,54.884,85.797,57.451z" fill-rule="evenodd" clip-rule="evenodd" fill="#3B8073"></path>
	<path style="" d="M160.121,131.745c5.364,8.872,8.139,19.424,8.699,30.272
		c6.46,6.25,15.882,9.818,28.772,7.229c2.567-12.896-1.092-22.338-7.417-28.811C179.404,139.848,168.934,137.073,160.121,131.745z" fill-rule="evenodd" clip-rule="evenodd" fill="#9FC43E"></path>
	<path style="" d="M168.757,64.867c-0.586,10.772-3.362,21.242-8.69,30.054
		c8.872-5.364,19.424-8.139,30.272-8.699c6.25-6.46,9.818-15.882,7.229-28.772C184.672,54.884,175.23,58.543,168.757,64.867z" fill-rule="evenodd" clip-rule="evenodd" fill="#6985BC"></path>
	<path style="" d="M85.774,169.246c12.889,2.589,22.312-0.979,28.772-7.229
		c0.56-10.848,3.335-21.4,8.699-30.272c-8.813,5.328-19.283,8.104-30.054,8.69C86.865,146.907,83.206,156.35,85.774,169.246z" fill-rule="evenodd" clip-rule="evenodd" fill="#43A0BC"></path>
</g>
</svg></g> <!----></g><g id="shapge_HQkfRAThUN" transform="translate(141.36363636363637,238.1818181818182) rotate(0,0,0) scale(0.9090909090909091,0.9090909090909091)" filter="" style="cursor: move; opacity: 1;"><g><svg xmlns="http://www.w3.org/2000/svg" version="1.1" xmlns:xlink="http://www.w3.org/1999/xlink" overflow="hidden" style="top:0; left: 0" width="129" height="38" viewBox="0 0 129.787 38.279999999999994" preserveAspectRatio="none" data-parent="shapge_HQkfRAThUN"><rect fill="rgba(0,0,0,0)" width="129" height="38"></rect> <rect opacity="0"></rect><g transform="translate(0 0)" data-width="124.787"><path fill="#72C2C0" d="M9.69 0L2.90 0L2.90-21.26L9.22-21.26L9.22-21.26Q11.40-21.26 13.04-20.73L13.04-20.73L13.04-20.73Q14.67-20.21 15.60-19.08L15.60-19.08L15.60-19.08Q16.53-17.95 16.53-16.07L16.53-16.07L16.53-16.07Q16.53-14.47 15.72-13.22L15.72-13.22L15.72-13.22Q14.91-11.98 13.40-11.46L13.40-11.46L13.40-11.31L13.40-11.31Q15.34-10.93 16.54-9.67L16.54-9.67L16.54-9.67Q17.75-8.41 17.75-6.24L17.75-6.24L17.75-6.24Q17.75-3.10 15.50-1.55L15.50-1.55L15.50-1.55Q13.25 0 9.69 0L9.69 0ZM5.60-19.14L5.60-12.21L8.76-12.21L8.76-12.21Q11.51-12.21 12.70-13.17L12.70-13.17L12.70-13.17Q13.89-14.12 13.89-15.72L13.89-15.72L13.89-15.72Q13.89-17.60 12.63-18.37L12.63-18.37L12.63-18.37Q11.37-19.14 8.87-19.14L8.87-19.14L5.60-19.14ZM5.60-10.15L5.60-2.15L9.31-2.15L9.31-2.15Q12.06-2.15 13.59-3.16L13.59-3.16L13.59-3.16Q15.11-4.18 15.11-6.32L15.11-6.32L15.11-6.32Q15.11-8.29 13.60-9.22L13.60-9.22L13.60-9.22Q12.09-10.15 9.31-10.15L9.31-10.15L5.60-10.15Z" transform="translate(0 25.52)"></path><path fill="#72C2C0" d="M5.60 0L2.90 0L2.90-21.26L5.60-21.26L5.60-10.59L5.68-10.59L14.56-21.26L17.57-21.26L10.93-13.17L18.62 0L15.60 0L9.25-11.08L5.60-6.73L5.60 0Z" transform="translate(19.053 25.52)"></path><path fill="#72C2C0" d="M9.71-20.27L9.71-20.27L8.58-18.59L8.58-18.59Q7.54-19.37 5.86-20.24L5.86-20.24L5.86-20.24Q4.18-21.11 2.55-21.72L2.55-21.72L3.63-23.23L3.63-23.23Q5.25-22.65 6.95-21.84L6.95-21.84L6.95-21.84Q8.64-21.03 9.71-20.27ZM9.89-16.91L9.89-16.91L10.21-15.02L10.21-15.02Q5.83-13.57 2.15-12.35L2.15-12.35L1.54-14.36L1.54-14.36Q4.93-15.34 9.89-16.91ZM23.95-10.76L23.95-2.93L21.78-2.93L21.78-8.79L7.48-8.79L7.48-2.73L5.37-2.73L5.37-10.76L23.95-10.76ZM13.75-7.95L13.75-7.95L15.83-7.95L15.83-7.95Q15.40-5.08 14.11-3.03L14.11-3.03L14.11-3.03Q12.82-0.99 10.06 0.32L10.06 0.32L10.06 0.32Q7.31 1.62 2.49 2.29L2.49 2.29L2.49 2.29Q2.38 1.89 2.09 1.38L2.09 1.38L2.09 1.38Q1.80 0.87 1.54 0.52L1.54 0.52L1.54 0.52Q6.06-0.03 8.58-1.12L8.58-1.12L8.58-1.12Q11.11-2.20 12.24-3.89L12.24-3.89L12.24-3.89Q13.37-5.57 13.75-7.95ZM14.96-2.23L14.96-2.23L16.15-3.80L16.15-3.80Q18.91-2.93 21.97-1.78L21.97-1.78L21.97-1.78Q25.03-0.64 27.03 0.35L27.03 0.35L25.75 2.12L25.75 2.12Q23.84 1.13 20.81-0.09L20.81-0.09L20.81-0.09Q17.78-1.31 14.96-2.23ZM23.90-19.89L23.90-19.89L19.60-19.89L19.60-19.89Q19.43-19.26 19.20-18.68L19.20-18.68L19.20-18.68Q19.17-18.53 19.11-18.42L19.11-18.42L19.11-18.42Q21.75-14.53 27.43-13.20L27.43-13.20L27.43-13.20Q27.09-12.91 26.72-12.41L26.72-12.41L26.72-12.41Q26.36-11.92 26.13-11.51L26.13-11.51L26.13-11.51Q21.17-12.96 18.27-16.73L18.27-16.73L18.27-16.73Q17.28-14.96 15.46-13.59L15.46-13.59L15.46-13.59Q13.63-12.21 10.64-11.31L10.64-11.31L10.64-11.31Q10.47-11.69 10.14-12.14L10.14-12.14L10.14-12.14Q9.80-12.59 9.48-12.88L9.48-12.88L9.48-12.88Q13.28-13.95 15.07-15.79L15.07-15.79L15.07-15.79Q16.85-17.63 17.43-19.89L17.43-19.89L14.01-19.89L14.01-19.89Q12.82-18.13 10.99-16.59L10.99-16.59L10.99-16.59Q10.70-16.96 10.28-17.34L10.28-17.34L10.28-17.34Q9.86-17.72 9.48-17.92L9.48-17.92L9.48-17.92Q11.22-19.31 12.35-20.97L12.35-20.97L12.35-20.97Q13.49-22.62 14.04-24.16L14.04-24.16L16.10-23.87L16.10-23.87Q15.66-22.74 15.05-21.61L15.05-21.61L24.85-21.61L25.20-21.69L26.77-21.26L26.77-21.26Q25.58-18.68 24.45-16.79L24.45-16.79L22.56-17.34L22.56-17.34Q23.05-18.15 23.58-19.26L23.58-19.26L23.58-19.26Q23.72-19.57 23.90-19.89Z" transform="translate(37.787000000000006 25.52)"></path><path fill="#72C2C0" d="M8.70-20.85L8.70-20.85L7.42-19.14L7.42-19.14Q6.55-19.84 5.19-20.75L5.19-20.75L5.19-20.75Q3.83-21.66 2.61-22.45L2.61-22.45L3.86-23.93L3.86-23.93Q5.08-23.23 6.45-22.37L6.45-22.37L6.45-22.37Q7.83-21.52 8.70-20.85ZM7.34-13.31L7.34-13.31L6.06-11.57L6.06-11.57Q5.19-12.24 3.83-13.11L3.83-13.11L3.83-13.11Q2.47-13.98 1.19-14.67L1.19-14.67L2.44-16.18L2.44-16.18Q2.52-16.12 2.61-16.10L2.61-16.10L2.61-16.10Q3.83-15.43 5.15-14.66L5.15-14.66L5.15-14.66Q6.47-13.89 7.34-13.31ZM6.21-8.67L6.21-8.67L7.89-7.48L7.89-7.48Q5.95-2.55 3.71 1.80L3.71 1.80L1.80 0.61L1.80 0.61Q2.78-1.13 3.97-3.65L3.97-3.65L3.97-3.65Q5.16-6.18 6.21-8.67ZM27.46-20.88L11.95-20.88L11.95-14.94L11.95-14.94Q11.95-12.41 11.69-9.37L11.69-9.37L11.69-9.37Q11.43-6.32 10.57-3.33L10.57-3.33L10.57-3.33Q9.71-0.35 8.03 2.12L8.03 2.12L8.03 2.12Q7.74 1.83 7.21 1.49L7.21 1.49L7.21 1.49Q6.67 1.16 6.26 0.99L6.26 0.99L6.26 0.99Q7.89-1.36 8.66-4.15L8.66-4.15L8.66-4.15Q9.43-6.93 9.63-9.74L9.63-9.74L9.63-9.74Q9.83-12.56 9.83-14.94L9.83-14.94L9.83-22.85L27.46-22.85L27.46-20.88ZM14.62-5.97L14.62-5.97L16.56-5.45L16.56-5.45Q14.96-2.03 12.91 0.49L12.91 0.49L12.91 0.49Q12.59 0.23 12.08-0.07L12.08-0.07L12.08-0.07Q11.57-0.38 11.17-0.61L11.17-0.61L11.17-0.61Q13.25-2.90 14.62-5.97ZM24.36-11.80L15.54-11.80L15.54-9.25L24.36-9.25L24.36-11.80ZM24.36-15.89L15.54-15.89L15.54-13.37L24.36-13.37L24.36-15.89ZM26.36-17.55L26.36-7.60L20.85-7.60L20.85-0.03L20.85-0.03Q20.85 0.78 20.66 1.23L20.66 1.23L20.66 1.23Q20.47 1.68 19.87 1.91L19.87 1.91L19.87 1.91Q18.76 2.32 15.92 2.20L15.92 2.20L15.92 2.20Q15.86 1.77 15.69 1.28L15.69 1.28L15.69 1.28Q15.52 0.78 15.31 0.35L15.31 0.35L15.31 0.35Q17.14 0.41 18.04 0.38L18.04 0.38L18.04 0.38Q18.21 0.38 18.30 0.38L18.30 0.38L18.30 0.38Q18.59 0.35 18.69 0.26L18.69 0.26L18.69 0.26Q18.79 0.17 18.79-0.06L18.79-0.06L18.79-7.60L13.60-7.60L13.60-17.55L17.98-17.55L17.98-17.55Q18.21-18.27 18.44-19.05L18.44-19.05L18.44-19.05Q18.68-19.84 18.82-20.47L18.82-20.47L21.23-19.98L21.23-19.98Q20.62-18.71 20.04-17.55L20.04-17.55L26.36-17.55ZM22.79-5.48L22.79-5.48L24.65-6.21L24.65-6.21Q25.52-4.84 26.45-3.31L26.45-3.31L26.45-3.31Q27.38-1.77 27.96-0.67L27.96-0.67L25.98 0.20L25.98 0.20Q25.46-0.93 24.56-2.49L24.56-2.49L24.56-2.49Q23.66-4.06 22.79-5.48Z" transform="translate(66.787 25.52)"></path><path fill="#72C2C0" d="M9.05-19.81L9.05-19.81L7.11-19.14L7.11-19.14Q6.82-20.07 6.29-21.29L6.29-21.29L6.29-21.29Q5.77-22.50 5.19-23.55L5.19-23.55L6.99-24.10L6.99-24.10Q7.66-23.05 8.22-21.89L8.22-21.89L8.22-21.89Q8.79-20.73 9.05-19.81ZM9.51-4.64L9.51-4.64L12.64-5.39L12.85-3.42L12.85-3.42Q6.82-1.89 1.97-0.67L1.97-0.67L1.45-2.78L1.45-2.78Q2.12-2.93 2.87-3.10L2.87-3.10L2.87-3.10Q5.05-3.57 7.71-4.21L7.71-4.21L7.71-4.21Q8.29-6.61 8.80-9.86L8.80-9.86L8.80-9.86Q9.31-13.11 9.60-15.86L9.60-15.86L11.63-15.49L11.63-15.49Q11.19-12.88 10.64-9.93L10.64-9.93L10.64-9.93Q10.09-6.99 9.51-4.64ZM2.93-15.20L2.93-15.20L4.67-15.52L4.67-15.52Q5.19-12.96 5.60-10.18L5.60-10.18L5.60-10.18Q6.00-7.40 6.15-5.19L6.15-5.19L4.32-4.84L4.32-4.84Q4.23-7.05 3.84-9.86L3.84-9.86L3.84-9.86Q3.45-12.67 2.93-15.20ZM12.99-16.85L1.80-16.85L1.80-18.85L12.99-18.85L12.99-16.85ZM15.63-1.19L24.33-1.19L24.33-8.47L15.63-8.47L15.63-1.19ZM27.72-18.27L27.72-16.21L20.42-16.21L20.42-10.50L26.51-10.50L26.51 2.09L24.33 2.09L24.33 0.84L15.63 0.84L15.63 2.20L13.54 2.20L13.54-10.50L18.24-10.50L18.24-24.27L20.42-24.27L20.42-18.27L27.72-18.27Z" transform="translate(95.787 25.52)"></path></g></svg></g> <!----></g>  <!----></svg>